<svg id="Layer_1" data-name="Layer 1" xmlns="http://www.w3.org/2000/svg" viewBox="0 0 1224 792"><defs><style>.cls-1{fill:#737373;}.cls-2{fill:#fff;}</style></defs><path d="M500.79,261.25V371H611.94V261.06C607.26,260.21,504,260.39,500.79,261.25Zm61.31,69.47c-.19,10.36-4.51,15.32-15.42,16.87a31,31,0,0,0,3.44-4.3A21.1,21.1,0,0,0,552.71,333c-.07-11.49,0-23,0-34.47,0-2.25-.32-4.5-.51-7h10.61C561.51,304.7,562.35,317.72,562.1,330.72Z"/><path d="M746,130.85c0-.13-.14-.24-.23-.35s-.19-.21-.6-.65h-3.09l-94.15,0c-3.46,0-6.91,0-10.37,0-2.88,0-3.12.35-3.12,3.3q0,51.18,0,102.36a43.52,43.52,0,0,0,.43,4.34H745.51c.31-.61.55-.86.55-1.11q.12-52.9.19-105.81A15.26,15.26,0,0,0,746,130.85Zm-57.63,39.36c-.08,12,0,23.91-.07,35.87-.07,7.93-6.06,13.58-14.83,13.62,5.91-5.21,5.63-11.88,5.62-18.48,0-10.37,0-20.74,0-31.11a54,54,0,0,0-.71-5.86c3.6-.33,7.41-1,10.87.16A39.93,39.93,0,0,0,688.38,170.21Z"/><path d="M611.46,130.13H500.59v4q0,50.54,0,101.05c0,4.68,0,4.7,4.82,4.73,3.17,0,6.34,0,9.5,0q47.93.17,95.85.3c.35,0,.7-.44,1-.64C612.7,233.8,612.4,133.23,611.46,130.13ZM570,206.57a11.32,11.32,0,0,1-7-5.43c-2.65-4.76-5.29-9.53-8.11-14.61a27.52,27.52,0,0,1,3.16-1.37c2.83-.82,4.2-2.85,4.87-5.52a16.31,16.31,0,0,0,.29-1.7c1.26-9.15-3.05-13.14-12.46-11.41a6,6,0,0,0-.44,1.57c0,11.51,0,23,.2,34.54,0,1.47,1.08,2.92,1.73,4.57H538.89c2.53-1.3,2.58-3.22,2.57-5.26,0-10.51,0-21,0-31.52a44.61,44.61,0,0,0-.88-6.12,13.09,13.09,0,0,1,2.46-.39q8.64.12,17.27.37a20.65,20.65,0,0,1,3.43.33c8.78,1.76,12.42,10.48,7.34,17.86a16.18,16.18,0,0,1-4.19,3.52,22.45,22.45,0,0,1-3.48,1.58c5.53,3.8,8,9.49,11.74,14.11,1.65,2,3.62,3.77,5.5,5.69A28.48,28.48,0,0,1,570,206.57Z"/><path class="cls-1" d="M673.84,299.94c-.56-.08-1.12-.17-1.68-.29a16.8,16.8,0,0,1-1.25,4.21c-.57,2.51-2.25,4.6-3.26,6.89-.09.22-.18.42-.25.62-1.28,3.46-2.95,6.77-4.66,10.65,3.53,1,6.52.49,9.44.58s6,0,9.63,0Zm0,0c-.56-.08-1.12-.17-1.68-.29a16.8,16.8,0,0,1-1.25,4.21c-.57,2.51-2.25,4.6-3.26,6.89-.09.22-.18.42-.25.62-1.28,3.46-2.95,6.77-4.66,10.65,3.53,1,6.52.49,9.44.58s6,0,9.63,0Zm0,0c-.56-.08-1.12-.17-1.68-.29a16.8,16.8,0,0,1-1.25,4.21c-.57,2.51-2.25,4.6-3.26,6.89-.09.22-.18.42-.25.62-1.28,3.46-2.95,6.77-4.66,10.65,3.53,1,6.52.49,9.44.58s6,0,9.63,0Zm0,0c-.56-.08-1.12-.17-1.68-.29a16.8,16.8,0,0,1-1.25,4.21c-.57,2.51-2.25,4.6-3.26,6.89-.09.22-.18.42-.25.62-1.28,3.46-2.95,6.77-4.66,10.65,3.53,1,6.52.49,9.44.58s6,0,9.63,0Zm0,0c-.56-.08-1.12-.17-1.68-.29a16.8,16.8,0,0,1-1.25,4.21c-.57,2.51-2.25,4.6-3.26,6.89-.09.22-.18.42-.25.62-1.28,3.46-2.95,6.77-4.66,10.65,3.53,1,6.52.49,9.44.58s6,0,9.63,0Z"/><path class="cls-1" d="M1189.06,648.67v7.25c-1.91.11-3.73.28-5.56.29q-62.65.48-125.32.9-161.61.89-323.24,1.68-173.51.87-347,1.69L41.78,662.14H35.6V655c1.63-.12,3.15-.32,4.68-.33q73.68-.33,147.36-.65l191-.9q88.8-.44,177.61-.89,154.92-.84,309.85-1.73,89.45-.48,178.9-.83,69.15-.39,138.29-1Z"/><path class="cls-1" d="M1189,453.93v7.2c-1.48.11-2.85.31-4.22.31q-134.19.65-268.39,1.27Q655.08,464,393.83,465.37q-111.93.57-223.87,1.09-64.18.35-128.36.81c-2.13,0-4.27,0-6.66,0v-7.17c1.53-.12,3-.35,4.55-.36q53.37-.35,106.75-.66,85.14-.48,170.28-.91,89-.45,178.06-.86,184.11-.87,368.22-1.74,128.79-.65,257.58-1.45c21.32-.12,42.64-.14,64-.2Z"/><path d="M257,503.64c-.08,1.85-.2,3.26-.2,4.68,0,12.1,0,24.2,0,36.3,0,3.9.34,7.37,5.61,8-3.17,1.91-17.94,2.15-23.51.74,0-.23,0-.61.17-.66,5.3-2,5.57-2.25,5.59-8.11,0-11.82,0-23.63,0-35.44,0-6.22-.43-6.8-6.65-9.21,2.73-.31,4.67-.69,6.61-.71,6.91-.08,13.83-.2,20.74,0a35.58,35.58,0,0,1,9.31,1.61c8.66,2.72,12.28,11.4,8.61,19.79-1.78,4.06-4.81,6.69-9.32,8.48,5.94,5.07,8.88,11.91,13.43,17.56,2.52,3.13,5.49,5.52,9.8,5.42,2.72-.06,3.61-.84,3.92-3.53a38.9,38.9,0,0,0,.16-4.32c0-9.08-.06-18.15,0-27.23,0-3.78.33-7.56-4.38-9.48,11.95-1,23.68-.21,35.65-1v11.35a31.24,31.24,0,0,1-1.88-3,6.3,6.3,0,0,0-6.07-4H313.32c-.21,5.95-.29,11.6.05,17.35a23.75,23.75,0,0,0,10.12.18,5.25,5.25,0,0,0,2.71-1.89,27.24,27.24,0,0,0,2.29-4c.79,5.65.25,10.54,0,15.64-1.8-2.19-2.67-5.31-6-5.41-2.86-.09-5.73,0-9.2,0-.1,5.75-.59,11.36.38,16.88,12.2,2.14,16.78,0,21.91-10.56,1,2.81-.1,5-.48,7.26-.4,2.4-.92,4.77-1.46,7.46-2,.15-4,.4-6,.41q-18.59,0-37.16,0a49.45,49.45,0,0,1-5.17-.28c-7.38-.79-13.21-3.81-16.15-11.1-.69-1.73-1.7-3.33-2.53-5-3.29-6.73-3.29-6.73-8.42-11.19,1.89-.28,3.39-.58,4.91-.71A7.7,7.7,0,0,0,269.5,522c2.76-4.72,2.69-9.6.38-14.45-1.16-2.42-3.44-3.51-5.94-3.82A60.74,60.74,0,0,0,257,503.64Z"/><path d="M513.94,530.32c2.62-1.13,6.28-.5,7.82-4.19a14.3,14.3,0,0,0,1.12-9.24c-1.23-4.91-5-6.72-11.56-5.4-.06,1.32-.18,2.72-.18,4.13q0,14.7,0,29.39c0,5.75,0,5.75,5.93,8.52-8.15,1.06-15.44.77-23.65.27,1.19-.83,1.48-1.17,1.83-1.26,3.11-.74,3.92-2.85,3.88-5.81-.1-7.92,0-15.85,0-23.77,0-2.45-.1-4.9,0-7.35.17-3.4-.22-6.42-4.51-7.5.71-.59,1-1,1.28-1,9.34.18,18.7.15,28,.71,4.53.27,8.62,2.11,10.81,6.75a12.39,12.39,0,0,1-5.45,16.6c-.76.4-1.55.73-2.31,1.09,4.18,5.53,8.24,11,12.42,16.39,1.72,2.22,3.92,3.82,7,3.59,2.14-.16,3.55-1.08,3.76-3.36.11-1.15.27-2.3.27-3.45,0-9.79,0-19.59.08-29.39,0-3.69-.51-7-5.38-7.85,3.56-1.55,18.59-1.65,22.52-.3-1,.53-1.9.93-2.72,1.42a4.94,4.94,0,0,0-2.68,4.57q.07,16.41,0,32.84c0,4.05,2.69,5.36,6,6.88a25.4,25.4,0,0,1-3.84.56c-8.79,0-17.58.06-26.37,0-7.53-.08-13.37-3-16.57-10.23-.53-1.18-1.14-2.33-1.77-3.46C517.84,537.16,516,534,513.94,530.32Z"/><path d="M694,551.24c-2.95-2-5.87-4.13-8.79-6.22-1.61-1.16-1.85-2.59-1.27-4.54a53.33,53.33,0,0,0,1.75-8.4c.44-3.43-.19-7.09,2.94-9.88-5.55-1.05-13.25-.77-15.87.46,5.52,3.28,7.22,8.82,4.46,15.28-7.74-6.07-15.48-12-21.54-19.75a15.55,15.55,0,0,1-2.56-5.42c-1.17-4.33,1.3-9.09,5.31-10,4.7-1.09,9.17-.51,11,5.36.44,1.35.52,2.82.9,4.21a21.9,21.9,0,0,0,1.3,2.9c2.44-2.88,2-6.14,3.17-8.82,1-2.37-.14-3.92-2.14-4.92-8.8-4.39-17.61-4.79-26.43.06-5.13,2.83-6.6,7.36-6.11,12.76a22.57,22.57,0,0,0,1.49,5.38c1.08,3,1.19,3.07-1.69,4.64-5.32,2.89-8.08,7.28-7.92,13.32a13.9,13.9,0,0,0,8.15,12.83c9.81,4.73,20.14,5.91,30.59,2.38a11.78,11.78,0,0,1,9,.1c5.46,2.29,11.17,1.48,16.81,1.1.07-.38.15-.77.22-1.15C696,552.36,695,551.87,694,551.24Zm-44.23-5.19c-4.81-5.35-6.11-12.23-2.69-17.8l23.15,20C664.85,552.62,653.61,550.27,649.81,546.05Z"/><path d="M353.1,553.54c-5.89.94-11,.94-16.08-.51a7.1,7.1,0,0,1,1.5-.54c3.23-.49,4.55-2.55,5-5.6,1.35-9.26,2.81-18.5,4.2-27.75.64-4.25,1.22-8.51,1.82-12.68,2.14-.44,2.44,1.15,3.08,2.12,5.74,8.63,11.41,17.31,17.13,25.95.69,1,1.58,2,2.75,3.39,1.21-1.58,2.25-2.72,3.05-4,4.85-7.67,9.63-15.37,14.47-23,1-1.54,2.09-3,3.58-5.07a22.13,22.13,0,0,1,1.24,3.37c1.94,12.65,3.9,25.3,5.73,38,.52,3.63,2.79,5.11,6.39,5.59-3.75,1.92-18.17,2-22.76.4,3.66-1.77,3.74-1.78,3.34-5.79-.49-4.87-1.11-9.73-1.71-14.59a20.93,20.93,0,0,0-.63-2.51c-3.16,2.45-13.31,19-15.34,24.91-2.13-.41-2.7-2.32-3.67-3.8l-14-21.49a21.68,21.68,0,0,0-1.07,3.16c-.64,4.56-1.26,9.12-1.78,13.7C348.8,550.92,348.86,550.93,353.1,553.54Z"/><path d="M475.78,507.2h13.57c-1.29,1.47-2.94,2.68-3.58,4.28s-.38,3.69-.39,5.55c0,5.62,0,11.23,0,16.85,0,1.58,0,3.17-.12,4.75-.56,9.12-6.51,14.26-14.88,15.89a32.85,32.85,0,0,1-14.53-.56c-7.56-1.92-13.62-7.13-13.54-17.06,0-7-.1-14.11,0-21.17.05-3.41,0-6.6-3.81-8.48h19.73c-4,1.9-3.64,5.41-3.61,8.84,0,6.34,0,12.67.06,19a44.63,44.63,0,0,0,.25,5.17c.86,7,5.35,10.93,12.21,10.76,7-.17,11.77-4.48,12-11.54.27-8.78.09-17.56.14-26.35,0-2.59-.9-4.47-3.9-5C475.5,507.83,475.64,507.52,475.78,507.2Z"/><path d="M746.15,507.24h19.4c-3.77,1.9-3.82,5.11-3.77,8.49.09,6-.07,12.11.06,18.15a41.83,41.83,0,0,0,.9,8.13c1.38,6.23,5.26,9.06,11.85,9s10.83-3.38,12-9.55a21.63,21.63,0,0,0,.32-3.86c.05-7.78.05-15.56.08-23.34,0-2.88-.21-5.59-4-6.46,4.68-1.22,9.13-.82,13.9-.38-4.33,1.82-4.2,5.35-4.15,8.93.08,6.19-.22,12.4.09,18.58.59,11.82-5.45,19-17.61,20-7.56.64-14.56-.64-20.61-5.74a10.91,10.91,0,0,1-4.09-6.84,66.87,66.87,0,0,1-.66-8.6c-.09-6.48-.08-13,0-19.44,0-3-.28-5.59-4.35-6Z"/><path d="M715.75,500.46c5.48-1.66,21-1.69,25-.17a13.27,13.27,0,0,1-2.09.87c-2.53.57-3.51,2.33-3.66,4.7-.09,1.43-.08,2.87-.08,4.31q0,18.15,0,36.3c0,1.73,0,3.46-.08,5.18-.64,13.19-10.22,17.27-19.28,18.08a9.75,9.75,0,0,1-2.14-.39,13.57,13.57,0,0,1,1.75-2.05c4.89-3.63,7.07-8.56,7.09-14.55q0-11.88,0-23.76c0-6.63-.1-13.26.06-19.88C722.42,504.73,722,500.94,715.75,500.46Z"/><path d="M1006.3,506.36v10.81l-.62.31a22.71,22.71,0,0,1-1.49-2.61,6.05,6.05,0,0,0-6-4.12h-11v17.74a95.61,95.61,0,0,0,9.61-.07c2.95-.31,4-2.91,4.86-5.76,1.36,3.37,1.5,10.67.32,16a10.65,10.65,0,0,0-1.33-2.6c-1.18-1.17-2.42-2.8-3.87-3.08-3-.6-6.19-.46-9.56-.63v17.54c4.75.16,9.17.75,13.5-.57,4.56-1.39,6.18-5.59,8.41-9.38.61,4.64-1.22,8.86-1.39,13.18-4.15,1.53-34.28,1.54-38.66-.15,5.46-.51,6.08-3.86,6-8-.17-9.65-.16-19.29,0-28.94,0-3.92-.6-7.14-5.26-8.3C982,506.3,994,507.68,1006.3,506.36Z"/><path d="M405.88,568.07c.86-.51,1.76-1,2.59-1.54,3.75-2.53,5.24-6.37,5.9-10.6a42.07,42.07,0,0,0,.53-6.44c0-13.38,0-26.76,0-40.14a30.34,30.34,0,0,0-.12-3.44c-.38-3.37-1-4-4.32-5a3.44,3.44,0,0,1-1.54-.79c8.07-1.49,16.13-1,25.17-.59-1.14.89-1.38,1.19-1.69,1.29-4.2,1.34-4.64,1.68-4.73,5.94-.15,6.9-.08,13.81-.11,20.71,0,7.92.1,15.83-.1,23.74a19.3,19.3,0,0,1-18.23,18.45,12.88,12.88,0,0,1-2.44-.33Z"/><path d="M961.14,521.77c-.64-1.36-1.29-2.72-1.91-4.09-2.08-4.6-5.52-7.25-10.64-7.54-.43,0-.86-.08-1.29-.1-10.42-.65-16.06,3.41-18.19,13.63-1.53,7.38-1,14.6,3.29,21.17a12.59,12.59,0,0,0,9.9,6.09A32.6,32.6,0,0,0,947,551c8.16-.5,11.91-3.59,14-11.5.41-1.52.8-3.05,1.25-4.56.06-.21.4-.34,1.08-.88.29,3.88.93,7.46.66,11-.13,1.72-1.66,3.62-3.05,4.89-3.53,3.19-7.94,4.52-12.63,5-8.74.86-16.78-.85-24.15-5.91-6.07-4.15-10.6-18.41-7.37-25,1.63-3.34,2.59-7,5.18-9.83a23.25,23.25,0,0,1,12.62-7,47.93,47.93,0,0,1,24.3,1c2.26.65,3.48,1.79,3.32,4.25C962.1,515.49,962.73,518.62,961.14,521.77Z"/><path d="M485.35,596.59c-3,2-3.9,5.49-4.83,8.62s-1,6.72-1.43,10.2a21.3,21.3,0,0,1-2.29.19c-3.37-.09-3.8-.44-3.7-3.74.09-3.6.41-7.19.59-10.78.07-1.37,0-2.74,0-4.12l-.84-.38a12.33,12.33,0,0,0-2.17,2.16,27.09,27.09,0,0,0-3.58,13.19c-.07,3.32-1,4.08-4.13,3.63-2-.29-2.71-1.29-2.45-3.26.39-3,.67-6,1-9,.16-1.57.27-3.13.45-5.23-1.92,1-3.71,2.64-5.18.08-.13-.23-.74-.23-1.14-.26-1.78-.13-3.56-.22-5.93-.37-2,2.12-2.64,5.54-3.4,8.87a27.5,27.5,0,0,0-.52,4.72c-.26,5-1.2,5.51-6.59,3.32.42-5.22.86-10.62,1.3-15.94l-4.55,1c0-3.92,1.67-7,4.07-7.84s4.18-.15,6.3,2.77c2-1,3.84-2.3,5.91-2.86,2.44-.65,4.54.31,5.15,2.78,2-1,3.72-2.29,5.63-2.82,2.24-.63,3.77.87,4.56,2.77a57.3,57.3,0,0,1,6.75-2.77c2.89-.79,4.37,1.36,5.46,3.93,1.52-1.21,2.56-2.18,3.74-3,4.52-3,9.37-.58,9.48,4.83.07,3.87-.42,7.74-.67,11.76a2.48,2.48,0,0,0,1-.22c1-.79,2.18-2.11,3.22-.58.51.74.13,2.43-.36,3.45a6.84,6.84,0,0,1-5.3,4c-2.79.44-4.68-.68-4.86-3.5-.2-3.13.28-6.3.4-9.45.07-1.93,0-3.87,0-5.81Z"/><path d="M804.32,538.24c.69,2,1.09,2.85,1.32,3.8,1.33,5.25,4.88,8.42,10.22,8.87a22.82,22.82,0,0,0,5.16-.14,6.18,6.18,0,0,0,5.39-4.37c.76-2.46-.22-4.53-2.19-6.1-1.34-1.07-2.72-2.12-4.16-3.06-4-2.58-7.89-5.29-12-7.62-7.59-4.28-6.84-18.58,1.18-21.48,2.14-.78,4.34-1.91,6.53-1.93,5.28,0,10.57.45,16.32.76-.4,3.46-.75,6.52-1.11,9.64-.64-.17-1.08-.17-1.14-.32-2.42-6.86-6.32-6.67-13.33-5.9-2.31.25-3.71,2.13-4.22,4.41a4.36,4.36,0,0,0,2.24,4.76c4.34,2.81,8.84,5.39,13.12,8.3a23.55,23.55,0,0,1,6,5.35c4.33,6,2.62,13.92-3.51,18.1A21.5,21.5,0,0,1,818.84,555a27.3,27.3,0,0,1-13.44-2.39c-1.28-.63-2.79-1.94-3.09-3.2C801.48,545.94,802,542.45,804.32,538.24Z"/><path d="M576.33,539c.47,1.24,1,2.46,1.39,3.73,1.34,4.83,4.41,7.63,9.42,8.13a20.67,20.67,0,0,0,6.43-.24c5.26-1.16,6.77-6.4,2.88-10.12a42.51,42.51,0,0,0-6.36-4.4c-3.38-2.18-6.89-4.17-10.17-6.5A12,12,0,0,1,574.73,518c.62-6.17,3.9-10,10-11.42,6.3-1.46,12.48.39,19.19.35l-.85,9.57c-.75-.22-1.12-.22-1.21-.38-3.26-5.63-7.38-7.43-13.63-5.82-2,.52-3.76,1.64-4.34,3.78a4.73,4.73,0,0,0,2.23,5.58c3.65,2.29,7.36,4.48,11.05,6.72,1,.6,1.93,1.26,2.93,1.82,5.21,2.94,8.22,7.1,7.54,13.36-.73,6.76-5,10.61-11,12.48a28,28,0,0,1-18.23-.75c-4-1.48-4.71-2.57-4.42-6.77.17-2.47.73-4.91,1.12-7.37Z"/><path d="M856.34,510.6c-3.52,0-6.24-.14-8.93,0-3.12.22-5.47,1.63-6.26,5a8,8,0,0,1-.79,1.58c-1.32-2.3-1.37-3.23-.66-10.27h45.63v10.18l-.52.29c-.5-.88-1.08-1.72-1.49-2.64-1-2.3-2.65-3.81-5.21-3.91-3-.12-6,0-9.43,0-.11,1.68-.29,3.2-.3,4.72,0,9.36,0,18.71,0,28.07,0,6.5,0,6.5,4.69,9.8-3.8,1.18-17.7,1.13-21.74-.13.38-.27.65-.63,1-.69,3.44-.6,4.13-2.89,4.1-6-.11-8.2,0-16.41,0-24.62Z"/><path d="M889.36,507.19c.95-.09,1.9-.24,2.85-.25,6.11,0,12.22,0,19.38,0-1.24,1-1.58,1.45-2,1.6-2.93,1-3.7,3.15-3.67,6.07q.15,15.51,0,31c0,3.66.56,6.72,5.23,7.35-2.47,1.64-5,1.1-7.39,1.18-2.73.1-5.46.09-8.19,0a54.69,54.69,0,0,1-7.45-.77c5.89-2.34,5.91-2.34,5.93-8.73q0-14.45,0-28.89C894,510.31,893.89,510.14,889.36,507.19Z"/><path d="M912.79,596.76c-3.36,3.39-4.6,7.71-5.14,12.34a24.91,24.91,0,0,0-.09,2.59c0,3.71-.32,4-3.87,3.9a16.8,16.8,0,0,1-2.15-.35c-1.71-6.19,1.2-12.26.23-18.77-4.13,1.86-4.78,5.48-5.68,8.56-1,3.24-1,6.75-1.45,10.34-.8.08-1.48.2-2.17.21-4.05.06-4.59-.46-4.15-4.46.4-3.58,1-7.13,1.46-10.7.12-.94.1-1.91.16-3-2,.11-2.89,3.88-5.38.88.9-2.69,1.36-5.83,5-6.68,2.83-.67,5.14.12,6.13,2.92,2.43-1.11,4.58-2.47,6.92-3.08,2.93-.77,4.26,1.7,5.46,3.87a27.23,27.23,0,0,1,3.77-3.17c4.53-2.6,9-.17,9.16,5a77.64,77.64,0,0,1-.36,7.76c-.09,1.41-.29,2.81-.52,4.89a12,12,0,0,1,2-1.55c.71-.31,2-.75,2.2-.49a3.34,3.34,0,0,1,.73,2.58,8.4,8.4,0,0,1-5.4,5.22c-3.56,1.12-6.11-.48-6.29-4.26-.16-3.13.45-6.29.63-9.45.1-1.64,0-3.29,0-4.94Z"/><path d="M860.58,611.36c-2.39-3-4.93-5.88-7.82-9.29,1.81-1.27,3-2,4.09-2.91a9.55,9.55,0,0,0,3.2-10.1c-.81-3.51-3.46-5.4-6.7-5.92-6.38-1-12.81-.3-18.92-.51-1.84,3.77,1.18,4,3,5.13q-.44,9.9-.85,19.76a4.1,4.1,0,0,1-2.4,3.73,11.29,11.29,0,0,0-2.38,2.4c.57.72.73,1.12.92,1.13,4.13.26,8.26.65,12.39.61,1.89,0,2.66-3,1-3.85s-2.92-1.73-2.55-3.79c.29-1.56-.44-3.42,1.33-4.88,2.66,2.11,4.13,5,5.4,7.77,1.71,3.82,4.34,5.55,8.45,4.87,1-.18,2.56-.53,2.85-1.22S861.22,612.17,860.58,611.36Zm-16.53-13.07c.21-2.89.42-5.56.59-8.24.12-1.85.49-3.43,2.81-3.56a4.75,4.75,0,0,1,5,3.23C854.38,595.37,851.15,599.08,844.05,598.29Z"/><path d="M698.52,595.45c1.36-1,2.41-1.72,3.36-2.53a6.43,6.43,0,0,1,6.89-1c2.42,1,3.11,3.31,3,5.75-.19,3.72-.55,7.44-.87,11.53,1.53-.7,2.83-1.29,4.2-1.93.62,4.36-1.69,7.84-5.38,8.49-2.86.5-4.79-.73-5.24-3.7a26.88,26.88,0,0,1,0-5.15c.15-3.25.35-6.49.58-10.75-1.52,1.23-2.41,1.66-2.89,2.37a22.26,22.26,0,0,0-3.87,13.43c.12,3.14-.78,3.84-3.76,3.66-2.41-.14-3-.71-2.93-3.18.17-3.73.58-7.46.77-11.19a10.79,10.79,0,0,0-.76-4.43c-5.14,5.08-6.23,11.43-6,18.27a12.72,12.72,0,0,1-2.75.51c-3.24-.13-3.78-.69-3.51-3.92.33-4,.84-8,1.25-12a15.88,15.88,0,0,0,0-1.69c-.38,0-.71-.19-.85-.08-1,.81-1.85,2.9-3.34,1.31-.64-.69-.28-2.71.17-3.92a7.17,7.17,0,0,1,2.42-3c2.58-1.91,5.42-.88,7.08,2.26a55.19,55.19,0,0,1,7-3C695.86,590.72,697.48,592.67,698.52,595.45Z"/><path d="M374.69,598c-.88-.09-1.85-.18-2.82-.29-1.66-.19-2.65-1-2.62-2.8a3.12,3.12,0,0,1,2.69-3.37,5.63,5.63,0,0,1,6.52,3,11.74,11.74,0,0,1,1.16,3.67c.84,5.77-3,13.22-8.09,16-4.59,2.53-6.95,2.22-10.77-1.55-.89.64-1.77,1.37-2.74,1.95-4.88,3-9.34.78-9.93-4.92a36.19,36.19,0,0,1,.21-5.59c.1-1.94.23-3.89.35-5.88-.72,0-1,0-1.23.1-1,.69-2.08,2.09-3.34.88-1.43-1.38-.49-3,.5-4.22a12.63,12.63,0,0,1,2.84-2.62c3.93-2.62,7.6-.93,7.94,3.75.15,2.13-.34,4.29-.39,6.44-.08,2.8,0,5.6,0,8.83A5.44,5.44,0,0,0,359,607.1c.67-3.51,1.15-7.06,1.6-10.61a39.44,39.44,0,0,0,0-4.52h6.8c-.26,6.57-1.29,12.8-.9,19.08C372.72,610.77,376.52,604.52,374.69,598Z"/><path d="M737.18,591.81c-3.76-1.32-6.71.15-9,3.16-.08.1-.25.13-.38.2-2.32-3.49-4.46-4.5-7.26-3.43-2.49,1-3.91,4-3.42,7.46,2,1,2.63-.94,4.45-2.39,0,2.26.09,3.81,0,5.35-.32,4.44-.77,8.87-1.06,13.31-.19,3-.4,5.91-2.75,8.34-1.57,1.62-.9,3,1.31,3.13a72.74,72.74,0,0,0,8.61,0,3.16,3.16,0,0,0,2.22-1.47c.25-.45-.29-1.64-.81-2.16-3.23-3.28-3.26-3.24-1-7.39,7.42-.91,10.65-3.21,12.57-9.15a27.68,27.68,0,0,0,1.17-5.46C742.17,597.47,740,592.79,737.18,591.81Zm-4.53,17.85c-1,1.88-2.71,2.29-5.17,2.18.32-4.85.87-9.43,3.13-13.64a3,3,0,0,1,2.3-1.43c.66.11,1.52,1.32,1.62,2.13A17.09,17.09,0,0,1,732.65,609.66Z"/><path d="M526.47,612.22a26.76,26.76,0,0,1-3.16,2.64c-4.36,2.58-9,.34-9.47-4.69a48.55,48.55,0,0,1,.24-7.32c.1-1.7.3-3.39.48-5.35-1.94.21-2.81,3.33-4.93,1.38a7.46,7.46,0,0,1,5.7-7.37c3.65-.7,6,1.28,5.92,5.38-.07,3.29-.63,6.58-.89,9.88-.11,1.36,0,2.74,0,4.43,2.94-.18,3.84-2.16,4.29-4,.89-3.61,1.4-7.32,2-11a30.94,30.94,0,0,0,0-4.24h6.12c1.23,6.22-2.12,12.56-.53,18.9,2.22,1,3.76-.27,5.07-1.51a13,13,0,0,0,2.76-3.81c2.62-5.47,1.71-7.25-4.27-8.44-.83-1.67-1.31-3.48.33-5,1.44-1.32,5.43-.9,6.74.75a10.64,10.64,0,0,1,2.12,4.15c1.3,5.94-2.05,13.68-7.19,16.93a12.51,12.51,0,0,1-3.11,1.43C531,616.51,529,615.74,526.47,612.22Z"/><path d="M607.21,607.91a8.41,8.41,0,0,1-3.87,6.9c-3.79,2.56-7.41.89-7.61-3.65-.14-3.15.37-6.31.47-9.47a14.66,14.66,0,0,0-.67-4.88c-3.65,3-4.92,7-5.82,11.23a21.6,21.6,0,0,0-.17,3.87c-.1,3.17-2.78,4.88-5.51,3.24a4.13,4.13,0,0,1-1.32-3.25c.41-7.89,1-15.78,1.56-23.67,0-.57.11-1.14.18-1.91l-3.51-2.49c.82-.92,1.37-2.17,2.18-2.37,2.61-.63,5.32-.87,8.21-1.29,1,4.67-.56,9-.9,13.94,1.4-.8,2.39-1.44,3.44-2,4.76-2.38,8.92-.17,9.16,5.14.17,3.57-.27,7.16-.45,11Z"/><path d="M972.65,608.1a3.09,3.09,0,0,0-2.3-.3c-.81.27-1.46,1-2.86,2.1,1.16-10.3,2.23-19.75,3.36-29.75-3.29.5-6.09.76-8.82,1.38a1.91,1.91,0,0,0-.7,3.38,11.18,11.18,0,0,0,2.24,1.28c-.17,1.67-.32,3.2-.42,4.23-3.66,1.2-6.81,1.58-9.2,3.14-5.23,3.4-7.29,12.65-4.61,18.31,1.68,3.55,5,4.94,8.57,3.32a34.1,34.1,0,0,0,4.49-3c1.81,3.24,3.11,4,5.58,3.48,1.86-.42,5.14-3.86,5.33-5.78A2.26,2.26,0,0,0,972.65,608.1Zm-16.84,2.4c-1.27-4.72-1.25-9.19,1.46-13.43a4,4,0,0,1,4.7-1.73C962.85,603.12,960.5,609.22,955.81,610.5Z"/><path d="M276.64,611.43c-2.3-.94-2.44-3-3.05-4.86-2.41-7.37-4.8-14.76-7.26-22.12-.79-2.38-3-3.48-4.56-2.22a7.2,7.2,0,0,0-1.78,2.85c-2.82,6.76-5.46,13.6-8.43,20.29-.95,2.16-2.69,4-4.07,5.92-.61.87-1.23,1.73-1.93,2.72,2.16,2,4.39,1.47,6.46,1.44,1.76,0,4.26.75,4.76-1.62.26-1.22-1.24-2.8-2.12-4.57,1.16-3.63,1.16-3.64,5-3.71,1,0,2-.06,3,0,3.52.08,4.82,2.13,3.36,5.34-.51,1.13-1.18,2.19-1.78,3.27.61.52.92,1,1.24,1,3.43.16,6.87.33,10.3.29a2.38,2.38,0,0,0,1.75-1.49C277.63,613.13,277.22,611.67,276.64,611.43ZM258,601.53l3-9.14,3.64,9.14Z"/><path d="M398.86,587.87c-1.74-1.17-4.3-1.66-3.11-4.45,3.2-1,18.92-1.09,23.64-.08v8c-3.1,1.2-3.36,1.25-4-1.3s-2-3.61-4.54-3.66c-3.39-.07-3.95.26-4.41,3.75-.3,2.25-.38,4.53-.56,6.82,1.87.76,3.13,1,3.77-.95.18-.54.3-1.3.69-1.52a4.65,4.65,0,0,1,2.68-.76c.45.07,1,1.34,1,2.06-.09,3-.38,6-.59,9-1.76.86-3.21.73-4-1.1-.67-1.6-1.57-2.33-3.76-1.66-.14,2.64-.29,5.45-.45,8.48.89.18,1.74.12,2.17.51a4.09,4.09,0,0,1,1.39,2.29c0,.63-.78,1.92-1.22,1.93-4.52,0-9.12,1.23-13.5-.83-.09,0-.1-.26-.25-.71.23-.4.43-1.23.94-1.52,2.8-1.59,3.17-4.16,3.27-7C398.22,599.42,398.57,593.68,398.86,587.87Z"/><path d="M649.94,582.81c0,2.92.14,6.17-.06,9.41-.09,1.44-2.38,1.91-3.41.73a13.42,13.42,0,0,1-1.37-2.67c-2.93-5.6-9-6.17-13-1.22-3.5,4.41-4.23,13.48-1.49,18.49a7.56,7.56,0,0,0,8.29,4.06c2.59-.64,5-2,7.46-3.15,1.21-.55,2.38-1.22,3.68-1.9a3.12,3.12,0,0,1-.76,4.29c-5,4.9-16.42,8.08-23.53,1.16a9.9,9.9,0,0,1-1.49-1.55c-4.22-6.23-4-12.8-.88-19.26,2.83-5.9,7.69-9.26,14.43-9.15C641.76,582.1,645.67,582.53,649.94,582.81Z"/><path d="M977.93,595.87l-2.7,3.93c-2-.31-2.42-1.3-2.23-2.58a7.63,7.63,0,0,1,5.34-5.64c2.84-.54,5.36.24,6.61,2.86,1.6,3.34,2.74,6.91,4,10.4.47,1.28.77,2.62,1.3,4.44,2.38-3,2.55-6.11,2.8-9,.08-.92-1.13-2.12-2-2.92-1.08-1-2.52-1.93-1.72-3.51a5.05,5.05,0,0,1,2.79-2.3,3.23,3.23,0,0,1,4,1.72,10.08,10.08,0,0,1,1.32,7c-1.68,8.29-4.64,16-10.15,22.55a23.3,23.3,0,0,1-5.73,4.4,4.9,4.9,0,0,1-5.32-.39,3.38,3.38,0,0,1-1.36-4.49,3,3,0,0,1,4.35-1.4c1.48.73,2.71,1.6,4.26.21s2.79-3,2.31-5.23a48.2,48.2,0,0,0-1.94-7C982.32,604.76,981,600.51,977.93,595.87Z"/><path d="M316.74,615.28c-8.12,0-15.85,0-23.59-.06-.54,0-1.07-.78-1.51-1.13.08-.54,0-1,.18-1.07,3.46-2.42,4.11-5.95,4.06-9.84-.07-5.17,0-10.33,0-16.17-.62-.66-3.81-.69-2-4h13.71c-.63,1.34-.82,2.6-1.52,3.08-1.93,1.29-2.41,3-2.51,5.16-.26,5.17-.66,10.33-1,15.5-.08,1.25,0,2.51,0,4,2.34,0,4.31.06,6.27,0a4.64,4.64,0,0,0,4.23-3.17,14.54,14.54,0,0,1,.86-2.43,12.61,12.61,0,0,1,1.95-1.91c.58.87,1.66,1.75,1.65,2.6C317.45,609,317,612.08,316.74,615.28Z"/><path d="M342.79,607.41l-4.34,1.84c.27-2.61.47-4.89.76-7.15.33-2.56.73-5.12,1.14-7.67a2.15,2.15,0,0,0-1.55-2.66c-6.2-2.23-13.81.65-17.19,6.54a17.65,17.65,0,0,0-2,11.66c.84,5.54,6.18,7.56,10.73,4.21.8-.59,1.5-1.31,2.25-2,2.29,3.47,4,4.31,6.54,3.32S343.45,610.91,342.79,607.41Zm-15.2,3.2c-2.37-3.87-1-7.71.07-11.43.63-2.25,2-4.17,5.12-3.92C333.43,602.75,331.68,608,327.59,610.61Z"/><path d="M674.16,600.3c-.64-5.38-4.39-8.85-10-9.42-2.18.92-4.65,1.47-6.5,2.84-4.29,3.16-6.12,10.73-4.22,15.72a9.52,9.52,0,0,0,15.5,3.91C672.77,609.93,674.79,605.63,674.16,600.3ZM665.25,610c-1.06,2.34-3.21,2.33-4.57.15a7.22,7.22,0,0,1-.95-2.8c-.49-3.42-.73-6.89,1.26-9.94.62-.94,2-2.08,2.88-2s2.06,1.48,2.43,2.54c.55,1.57.51,3.35.81,5.81A42.45,42.45,0,0,1,665.25,610Z"/><path d="M942.15,607.68c-.5.17-.85.75-1.29,1.11-4.15,3.37-6.36,2.54-7.7-3.4,1.22-.34,2.17-.54,3.07-.88a45,45,0,0,0,6.35-2.54c2-1.13,3.76-2.81,3.08-5.57a6.23,6.23,0,0,0-5-4.75c-4.65-1-8.52.33-11.37,4.25a17.06,17.06,0,0,0-3.07,9.29c-.32,5.16,2.34,9.21,6.65,10.32,4.53,1.16,10.22-1.19,12.19-5.24.43-.88.13-2.11.16-3.19A23.38,23.38,0,0,0,942.15,607.68Zm-5.94-12.16a2.14,2.14,0,0,1,1.95,0,2.23,2.23,0,0,1,.56,1.87c-.48,2.5-2.17,3.42-4.81,3.4A4.85,4.85,0,0,1,936.21,595.52Z"/><path d="M775.35,606.58c-.9.83-1.71,1.6-2.54,2.35-1.45,1.31-3.16,2.31-5.08,1.5S765,608,765.3,605.27c1.49-.4,2.89-.67,4.2-1.16a26,26,0,0,0,5.49-2.42,5.3,5.3,0,0,0-.48-9.23,9.51,9.51,0,0,0-10.23.52c-5,3.5-7.53,10.85-5.73,16.56a8.6,8.6,0,0,0,6.28,6,10.93,10.93,0,0,0,11.94-4.95C777.81,608.79,777,607.67,775.35,606.58Zm-4.83-11.25c.23,4.33-.37,5-4.6,5.18C766.47,596.19,766.78,595.82,770.52,595.33Z"/><path d="M816.63,607.14c-1.73-1-2.53.63-3.54,1.55-.11.1-.19.21-.29.32a4.45,4.45,0,0,1-5.45,1.33c-2.09-.91-2.59-2.85-2-5.35,1.35-.26,2.75-.44,4.09-.81a24,24,0,0,0,4-1.47c3.33-1.61,4.43-3.71,3.78-6.87-.55-2.65-2.72-4.23-6.06-4.48-5.14-.38-9,1.69-11.26,6.27-2.37,4.84-3.23,10,0,14.76,3.4,5.05,12,4.55,16.08-.69C817.5,609.76,817.83,607.81,816.63,607.14Zm-9.91-10.46a7.11,7.11,0,0,1,3.26-1.4c.24-.07,1.1.81,1,1.1-.29,1.16-.54,2.59-1.35,3.29s-2.46.92-3.73,1.33l-.65-.92C805.73,598.93,805.92,597.52,806.72,596.68Z"/><path d="M882.07,607.33c-1.5-1.28-2.56.43-3.5,1.43-1.52,1.6-3.36,2.48-5.42,1.6-1.9-.82-2.47-2.64-2.26-5.14,1.22-.33,2.18-.54,3.12-.86a39.13,39.13,0,0,0,5.26-1.89c2.71-1.38,4-4,3.49-6.31-.65-2.85-2.63-4.49-5.9-4.81a10,10,0,0,0-8.65,3c-3.33,3.42-4.45,7.63-4.34,12.25s2.32,7.8,6.13,8.84c4.64,1.28,9-.15,11.46-3.85C882.29,610.28,883.63,608.67,882.07,607.33Zm-5.81-11.85c.3,3.72.13,3.93-4.45,5.46C872,596.1,872.39,595.6,876.26,595.48Z"/><path d="M746.9,586.28c-1.1-.7-2.15-1.36-3.56-2.27.68-.92,1.09-2.09,1.78-2.29a37.49,37.49,0,0,1,7.11-1.43c1.8-.18,1.95,1.23,1.77,2.67-.75,6-1.53,12-2.2,17.95-.29,2.64-.36,5.3-.55,8.3l4.78-2.39c.12,1.5.52,2.62.23,3.54a7.94,7.94,0,0,1-5.78,5.3c-3.41,1-5.9-1-5.83-4.83.11-5.16.67-10.31,1.13-15.46C746.05,592.38,746.51,589.4,746.9,586.28Z"/><path d="M578.86,608c1.85,1.15,1.74,2.27.95,3.55a9.93,9.93,0,0,1-9.35,4.16,4.83,4.83,0,0,1-4.22-4.3,34.54,34.54,0,0,1-.16-6c.11-2.86.4-5.72.58-8.26-.39-.57-.49-.91-.71-1-1.26-.56-3.12-.55-3.07-2.47s1.91-1.86,3.21-2.27c2.31-.71,3.46-2.41,4.21-4.55.6-1.71,1.63-2.72,3.84-1.71v6.06l4.61.72c.81,3.45.74,3.51-4.8,4.07-1.69,3.8-1.8,7.95-1.7,12.08,0,2.16,1.25,2.74,3.21,1.86.65-.29,1.21-.76,1.84-1.12S578.3,608.29,578.86,608Z"/><path d="M789.39,610.83l6.16-2.86c1.4,1.6,1.41,3.17.05,4.29a16,16,0,0,1-5.42,3.28c-4.7,1.31-7.6-.91-7.78-5.81-.12-3,.24-6,.41-9,.07-1.41.19-2.81.29-4.2-1.78-1-4.65-.52-4-3.91a10.91,10.91,0,0,1,2.12-.92,6.58,6.58,0,0,0,5.25-4.57c.63-2,1.8-2.81,4-2.13v6.24l4.65.73c.65,1.45.8,2.85-1,3.49a17.9,17.9,0,0,1-4.08.45C789,600.68,787.53,605.37,789.39,610.83Z"/><path d="M424,598l-3.63,1.74c-1-3.18-.38-5.12,1.94-6.94,1.68-1.32,5.51-1.91,6.95-.9,1.86,1.32,2.07,3.41,1.95,5.43-.18,3-.59,6-.89,9-.09,1-.16,1.93-.29,3.51l3.47-2.75c1.59.94,2.2,2.25,1.15,3.84a12.6,12.6,0,0,1-3.37,3.8c-4.3,2.78-8.25.67-8.23-4.4,0-2.85.65-5.7.94-8.56C424.08,600.7,424,599.56,424,598Z"/><path d="M556.66,609.64c1.09-.84,1.48-1.13,1.85-1.44,1.06-.9,2.32-.94,3,.14a3,3,0,0,1-.3,2.7,14.57,14.57,0,0,1-3.74,4c-3.55,2.25-7.06.38-7.37-3.8a32.93,32.93,0,0,1,.35-5.13c.17-1.85.4-3.7.57-5.55.06-.7,0-1.42,0-2.53l-3.8,1.66c-1.32-2.64-.13-4.36,1.37-6s3.59-2.82,6.12-2.33a3.49,3.49,0,0,1,2.86,3.35,35.14,35.14,0,0,1-.05,6C557.34,603.43,557,606.09,556.66,609.64Z"/><path d="M239.68,582.22c0,2.88.08,5.55,0,8.22-.1,2.35-2.1,2.3-4.08,2.81-1.86-3.55-.76-7.16-.62-11Z"/><path d="M1008.47,582.21l4.61-.27c1.15,3.22.23,6.2-.2,9.11-.1.69-1.56,1.54-2.48,1.68-1.4.2-1.94-.93-1.93-2.26C1008.48,587.9,1008.47,585.32,1008.47,582.21Z"/><path d="M1002.25,592.88c0-3-.08-5.26,0-7.52.17-3.72.58-3.94,5.11-2.66-.2,2.95-.41,6-.64,9.46Z"/><path d="M428.05,580.1c2.38-.07,4,1.31,4.07,3.45a4.5,4.5,0,0,1-3.94,4.39,3.79,3.79,0,0,1-4-3.67A3.75,3.75,0,0,1,428.05,580.1Z"/><path d="M245.66,592.29c-3.89.56-4.08.5-4.17-2a59.82,59.82,0,0,1,.14-6c.09-1.76,1.17-2.53,2.86-2.43s2.08,1.3,2,2.72C246.23,587.08,245.94,589.62,245.66,592.29Z"/><path d="M558.43,583.55c0,2.55-1.57,4.43-3.73,4.4a3.8,3.8,0,0,1-3.58-4.06A3.85,3.85,0,0,1,555,580.1C557.26,580,558.41,581.18,558.43,583.55Z"/><path class="cls-2" d="M552.17,291.53h10.61c-1.27,13.17-.43,26.19-.68,39.19-.19,10.36-4.51,15.32-15.42,16.87a31,31,0,0,0,3.44-4.3A21.1,21.1,0,0,0,552.71,333c-.07-11.49,0-23,0-34.47C552.67,296.26,552.36,294,552.17,291.53Z"/><path class="cls-2" d="M678.39,164.25c3.6-.33,7.41-1,10.87.16a39.93,39.93,0,0,0-.88,5.8c-.08,12,0,23.91-.07,35.87-.07,7.93-6.06,13.58-14.83,13.62,5.91-5.21,5.63-11.88,5.62-18.48,0-10.37,0-20.74,0-31.11A54,54,0,0,0,678.39,164.25Z"/><path class="cls-2" d="M550.76,166.53a6,6,0,0,0-.44,1.57c0,11.51,0,23,.2,34.54,0,1.47,1.08,2.92,1.73,4.57H538.89c2.53-1.3,2.58-3.22,2.57-5.26,0-10.51,0-21,0-31.52a44.61,44.61,0,0,0-.88-6.12,13.09,13.09,0,0,1,2.46-.39q8.64.12,17.27.37a20.65,20.65,0,0,1,3.43.33c8.78,1.76,12.42,10.48,7.34,17.86a16.18,16.18,0,0,1-4.19,3.52,22.45,22.45,0,0,1-3.48,1.58c5.53,3.8,8,9.49,11.74,14.11,1.65,2,3.62,3.77,5.5,5.69a28.48,28.48,0,0,1-10.64-.81,11.32,11.32,0,0,1-7-5.43c-2.65-4.76-5.29-9.53-8.11-14.61a27.52,27.52,0,0,1,3.16-1.37c2.83-.82,4.2-2.85,4.87-5.52a16.31,16.31,0,0,0,.29-1.7C564.48,168.79,560.17,164.8,550.76,166.53Z"/><path class="cls-1" d="M635.05,261.68v108.9H745.59V261.45C739.81,260.35,638.22,260.59,635.05,261.68Zm76.5,70.72c-6.48,1.21-12.31-2-14.34-8.21-.35-1.08.32-2.77,1-3.88,3.67-6,5.71-12.55,7.55-19.21.82-3,0-4.19-2.9-5.1-5.32-1.65-9.3,1.8-9,7.34a95.86,95.86,0,0,1-.33,11.61c-.31,5.4.18,10.64,2.65,15.54,0,0,0,0,0,0a36,36,0,0,1,.89,3.74c0,.09,0,.18,0,.26q.09.42.18.78a5.2,5.2,0,0,0,.35,1.14c1.15,1.69,1.26,1.75,1.86,2.61l.06.09c.15.22.34.49.57.87h0c0,.06.09.14.14.21.43.65,1,1.55,1.82,2.86l0,0c.18.29.38.59.58.92l-1.31.52c-1.53,1.81-5.41,3.1-9.94,3.1-3.68,0-6.93-.85-8.84-2.14-1.74-.77-2.79-1.77-2.79-2.87h0c.65-.8,1.28-1.59,1.88-2.4l.54-.73a2.63,2.63,0,0,1,.28-.34l.07-.08c.79-.85,2.12-1.89,2-2.66,0-.24,0-.48-.07-.72,0-.08,0-.15,0-.23,0-.26,0-.53,0-.78a13.8,13.8,0,0,1,.69-4.79,14.87,14.87,0,0,1,.77-2,22.43,22.43,0,0,0,1.89-10.09c0-5.45-.21-10.9-.36-16.35-.06-2.24-2.32-5-4.63-5.7s-5.4,0-6.64,1.9a4.53,4.53,0,0,0-.34,3.52c2.13,5.94,4.27,11.9,6.8,17.68,2,4.58,1.5,7.93-2.48,11.22-6.59,5.46-16.91,2.24-19-6a7,7,0,0,1,.5-4.16c2.65-6.21,5.47-12.35,8.27-18.5,0-.1.51-1.1,1-2-2.28-.63-4.25-1.82-5-4.76-.34-1.41.07-2.59,2.08-2.7l1.22,4a25.74,25.74,0,0,0,4.42-1.05,38.57,38.57,0,0,0,4.92-2.69,9.29,9.29,0,0,1,7.86-1.06,23.61,23.61,0,0,0,2.64.53c-.82-2.27-2.07-4.27-2-6.25,0-1.31,1.86-2.6,2.84-3.85,4.9,2.94,5,3.91,1.65,9.9.43.07.91.3,1.23.17,4.8-2,8.92-.67,12.92,2.25,1.53,1.11,3.53,1.56,5.5,2.39l2-4.4c2.33,2.83,2.07,3.66-2.57,8.16,1.93,4.43,3.92,9,5.93,13.61.75,1.71,1.57,3.4,2.31,5.11A10,10,0,0,1,711.55,332.4Z"/><path class="cls-2" d="M670.27,548.3c-5.42,4.32-16.66,2-20.46-2.25-4.81-5.35-6.11-12.23-2.69-17.8Z"/><path class="cls-2" d="M844.05,598.29c.21-2.89.42-5.56.59-8.24.12-1.85.49-3.43,2.81-3.56a4.75,4.75,0,0,1,5,3.23C854.38,595.37,851.15,599.08,844.05,598.29Z"/><path class="cls-2" d="M727.48,611.84c.32-4.85.87-9.43,3.13-13.64a3,3,0,0,1,2.3-1.43c.66.11,1.52,1.32,1.62,2.13a17.09,17.09,0,0,1-1.88,10.76C731.61,611.54,729.94,612,727.48,611.84Z"/><path class="cls-2" d="M962,595.34c.88,7.78-1.47,13.88-6.16,15.16-1.27-4.72-1.25-9.19,1.46-13.43A4,4,0,0,1,962,595.34Z"/><path class="cls-2" d="M258,601.53l3-9.14,3.64,9.14Z"/><path class="cls-2" d="M332.78,595.26c.65,7.49-1.1,12.76-5.19,15.35-2.37-3.87-1-7.71.07-11.43C328.29,596.93,329.64,595,332.78,595.26Z"/><path class="cls-2" d="M667.11,603.76a42.45,42.45,0,0,1-1.86,6.21c-1.06,2.34-3.21,2.33-4.57.15a7.22,7.22,0,0,1-.95-2.8c-.49-3.42-.73-6.89,1.26-9.94.62-.94,2-2.08,2.88-2s2.06,1.48,2.43,2.54C666.85,599.52,666.81,601.3,667.11,603.76Z"/><path class="cls-2" d="M933.91,600.74a4.85,4.85,0,0,1,2.3-5.22,2.14,2.14,0,0,1,1.95,0,2.23,2.23,0,0,1,.56,1.87C938.24,599.84,936.55,600.76,933.91,600.74Z"/><path class="cls-2" d="M770.52,595.33c.23,4.33-.37,5-4.6,5.18C766.47,596.19,766.78,595.82,770.52,595.33Z"/><path class="cls-2" d="M805.28,600.08c.45-1.15.64-2.56,1.44-3.4a7.11,7.11,0,0,1,3.26-1.4c.24-.07,1.1.81,1,1.1-.29,1.16-.54,2.59-1.35,3.29s-2.46.92-3.73,1.33Z"/><path class="cls-2" d="M871.81,600.94c.15-4.84.58-5.34,4.45-5.46C876.56,599.2,876.39,599.41,871.81,600.94Z"/><path class="cls-1" d="M718.33,322.4H699.78c2.78-7.74,5.5-15.31,8.32-23.18.66.38,1.62.63,1.68,1,1.11,6.78,4.82,12.53,7.28,18.77C717.42,319.9,717.74,320.8,718.33,322.4Z"/><path class="cls-1" d="M702.17,342.81c0,.09,0,.18,0,.27-.82-1.31-1.39-2.21-1.82-2.86-.05-.07-.09-.15-.14-.21A3.53,3.53,0,0,1,702.17,342.81Z"/><path class="cls-1" d="M684.68,336.43c.09.77-1.24,1.81-2,2.66l-.07.08a2.86,2.86,0,0,1-.28-1.21,3.74,3.74,0,0,1,1.79-2.93,4.07,4.07,0,0,1,.48-.33c0,.25,0,.52,0,.78,0,.08,0,.15,0,.23C684.63,336,684.65,336.19,684.68,336.43Z"/><path class="cls-1" d="M699.78,338a2.89,2.89,0,0,1-.22,1.08c-.6-.86-.71-.92-1.86-2.61a5.2,5.2,0,0,1-.35-1.14q-.09-.36-.18-.78C698.78,335.38,699.78,336.61,699.78,338Z"/><path class="cls-1" d="M684.6,335.48c0,.08,0,.15,0,.23a4.23,4.23,0,0,1-.52-.68,3.67,3.67,0,0,1-.56-1.92,4.11,4.11,0,0,1,1.73-3.2,13.8,13.8,0,0,0-.69,4.79C684.57,335,684.59,335.22,684.6,335.48Z"/><path class="cls-1" d="M697.32,333.11a3.38,3.38,0,0,1-.2,1.14,36,36,0,0,0-.89-3.74A3.78,3.78,0,0,1,697.32,333.11Z"/></svg>